<?xml version="1.0" encoding="UTF-8"?>
<svg xmlns="http://www.w3.org/2000/svg" width="6620" height="2380" viewBox="0 0 6620 2380" role="img" aria-labelledby="title desc">
<title id="title">Path Consultancy database ERD — overzicht</title><desc id="desc">Overzicht van 19 tabellen met alle primaire, foreign en unieke sleutelvelden. Alle 49 relaties staan direct achter het betreffende FK-veld. De detail-ERD bevat alle 263 kolommen.</desc>
<defs><filter id="shadow" x="-10%" y="-10%" width="120%" height="130%"><feDropShadow dx="0" dy="3" stdDeviation="4" flood-color="#0d1b38" flood-opacity=".13"/></filter><marker id="one" markerWidth="15" markerHeight="15" refX="2" refY="7.5" orient="auto" markerUnits="userSpaceOnUse"><path d="M 2 1 V 14 M 8 1 V 14" fill="none" stroke="#0d1b38" stroke-width="2"/></marker><marker id="many" markerWidth="20" markerHeight="20" refX="19" refY="10" orient="auto" markerUnits="userSpaceOnUse"><path d="M 19 10 L 2 2 M 19 10 L 2 10 M 19 10 L 2 18" fill="none" stroke="#0d1b38" stroke-width="2"/></marker><style>
text{font-family:Inter,Arial,sans-serif;fill:#0d1b38}.relation{fill:none;stroke:#53677c;stroke-width:2;opacity:.66}.shell{fill:#fff;stroke:#0d1b38;stroke-width:2;filter:url(#shadow)}.header{fill:#3abd9d}.table{font-size:28px;font-weight:800}.count{font-size:15px;font-weight:700;text-anchor:end}.row{fill:#fff;stroke:#d5e4e0;stroke-width:1}.key-cell{fill:#dff3ed;stroke:#c0ddd5;stroke-width:1}.key{font-size:17px;font-weight:800;text-anchor:middle;fill:#08705c}.field{font-size:20px;font-weight:700}.type,.reference{font-size:16px;font-weight:600;text-anchor:end}.type{fill:#40516a}.reference{fill:#08705c}.summary-row{fill:#f4f9f7;stroke:#d5e4e0;stroke-width:1}.summary{font-size:16px;font-style:italic;fill:#627184}.domain text{font-size:25px;font-weight:800;fill:#169276}.domain line{stroke:#3abd9d;stroke-width:5}.legend{font-size:17px;font-weight:700}.legend-note{font-size:15px;fill:#56667d}
</style></defs>
<rect width="6620" height="2380" fill="#f6faf9"/><rect width="6620" height="12" fill="#3abd9d"/>
<text x="70" y="82" font-size="42" font-weight="800">Path Consultancy · Database ERD</text><text x="70" y="122" font-size="20" fill="#56667d">Overzicht · alle 19 tabellen · alle sleutelvelden · 49 FK-doelen direct vermeld</text>
<g transform="translate(70 160)"><rect width="1470" height="72" rx="10" fill="#fff" stroke="#b9cfca"/><rect x="20" y="17" width="80" height="38" rx="6" fill="#dff3ed"/><text x="60" y="43" class="key">PK</text><text x="116" y="43" class="legend">Primary key</text><rect x="340" y="17" width="80" height="38" rx="6" fill="#dff3ed"/><text x="380" y="43" class="key">FK</text><text x="436" y="43" class="legend">Foreign key</text><rect x="658" y="17" width="110" height="38" rx="6" fill="#dff3ed"/><text x="713" y="43" class="key">PK/FK</text><text x="786" y="43" class="legend">Gecombineerde sleutel</text><rect x="1115" y="17" width="80" height="38" rx="6" fill="#dff3ed"/><text x="1155" y="43" class="key">UQ</text><text x="1211" y="43" class="legend">Unique</text></g>
<g transform="translate(1640 160)"><text x="10" y="42" class="reference">FK-veld → doeltabel.doelveld</text><text x="330" y="42" class="legend">= expliciete relatie</text><path d="M 625 36 H 740" class="relation" marker-start="url(#one)" marker-end="url(#many)"/><text x="765" y="42" class="legend">lijn binnen hetzelfde domein</text><text x="1115" y="42" class="legend-note">Alle 263 velden staan in ERD-detail.svg / ERD-detail.jpg</text></g>
<g class="domain"><text x="70" y="354">Organisatie &amp; identiteit</text><line x1="70" y1="366" x2="1120" y2="366"/></g>
<g class="domain"><text x="1370" y="354">Opdrachten &amp; routering</text><line x1="1370" y1="366" x2="2420" y2="366"/></g>
<g class="domain"><text x="2670" y="354">Urenregistratie</text><line x1="2670" y1="366" x2="3720" y2="366"/></g>
<g class="domain"><text x="3970" y="354">Documenten &amp; facturatie</text><line x1="3970" y1="366" x2="5020" y2="366"/></g>
<g class="domain"><text x="5270" y="354">Communicatie</text><line x1="5270" y1="366" x2="6320" y2="366"/></g><g id="relations"><path class="relation" data-fk="fk_users_company" d="M 1120 465.5 H 1154 V 872.5 H 1120" marker-start="url(#one)" marker-end="url(#many)"><title>companies.id → users.company_id</title></path>
<path class="relation" data-fk="fk_users_deactivated_by" d="M 1120 829.5 H 1165 V 1001.5 H 1120" marker-start="url(#one)" marker-end="url(#many)"><title>users.id → users.deactivated_by</title></path>
<path class="relation" data-fk="fk_user_preferences_user" d="M 1120 829.5 H 1176 V 1322.5 H 1120" marker-start="url(#one)" marker-end="url(#one)"><title>users.id → user_preferences.user_id</title></path>
<path class="relation" data-fk="fk_employees_company" d="M 1120 465.5 H 1187 V 1686.5 H 1120" marker-start="url(#one)" marker-end="url(#many)"><title>companies.id → employees.company_id</title></path>
<path class="relation" data-fk="fk_employees_user" d="M 1120 829.5 H 1198 V 1729.5 H 1120" marker-start="url(#one)" marker-end="url(#one)"><title>users.id → employees.user_id</title></path>



<path class="relation" data-fk="fk_assignments_client" d="M 2420 465.5 H 2542 V 958.5 H 2420" marker-start="url(#one)" marker-end="url(#many)"><title>counterparties.id → assignments.client_id</title></path>
<path class="relation" data-fk="fk_assignments_broker" d="M 2420 465.5 H 2454 V 1001.5 H 2420" marker-start="url(#one)" marker-end="url(#many)"><title>counterparties.id → assignments.broker_id</title></path>

<path class="relation" data-fk="fk_assignment_mail_routes_assignment" d="M 2420 829.5 H 2476 V 1772.5 H 2420" marker-start="url(#one)" marker-end="url(#many)"><title>assignments.id → assignment_mail_routes.assignment_id</title></path>
<path class="relation" data-fk="fk_assignment_mail_routes_recipient" d="M 2420 1322.5 H 2487 V 1815.5 H 2420" marker-start="url(#one)" marker-end="url(#many)"><title>mail_recipients.id → assignment_mail_routes.mail_recipient_id</title></path>


<path class="relation" data-fk="fk_timesheets_period" d="M 3720 465.5 H 3820 V 1001.5 H 3720" marker-start="url(#one)" marker-end="url(#many)"><title>periods.id → timesheets.period_id</title></path>



<path class="relation" data-fk="fk_time_entries_timesheet" d="M 3720 958.5 H 3765 V 1494.5 H 3720" marker-start="url(#one)" marker-end="url(#many)"><title>timesheets.id → time_entries.timesheet_id</title></path>
<path class="relation" data-fk="fk_corrections_timesheet" d="M 3720 958.5 H 3776 V 1944.5 H 3720" marker-start="url(#one)" marker-end="url(#many)"><title>timesheets.id → timesheet_corrections.timesheet_id</title></path>












<path class="relation" data-fk="fk_announcements_correction" d="M 5270 465.5 H 5170 V 594.5 H 5270" marker-start="url(#one)" marker-end="url(#many)"><title>announcements.id → announcements.correction_of_id</title></path>
<path class="relation" data-fk="fk_announcements_superseded" d="M 5270 465.5 H 5159 V 637.5 H 5270" marker-start="url(#one)" marker-end="url(#many)"><title>announcements.id → announcements.superseded_by_id</title></path>
<path class="relation" data-fk="fk_announcements_withdrawal" d="M 5270 465.5 H 5148 V 680.5 H 5270" marker-start="url(#one)" marker-end="url(#many)"><title>announcements.id → announcements.withdrawal_of_id</title></path>

<path class="relation" data-fk="fk_announcement_recipients_announcement" d="M 5270 465.5 H 5225 V 1044.5 H 5270" marker-start="url(#one)" marker-end="url(#many)"><title>announcements.id → announcement_recipients.announcement_id</title></path>




<path class="relation" data-fk="fk_email_deliveries_announcement" d="M 5270 465.5 H 5170 V 1580.5 H 5270" marker-start="url(#one)" marker-end="url(#many)"><title>announcements.id → email_deliveries.announcement_id</title></path>



<path class="relation" data-fk="fk_notifications_announcement" d="M 5270 465.5 H 5225 V 2073.5 H 5270" marker-start="url(#one)" marker-end="url(#many)"><title>announcements.id → notifications.announcement_id</title></path>
<path class="relation" data-fk="fk_audit_company" d="M 1120 465.5 H 1176 V 2136.5 H 1120" marker-start="url(#one)" marker-end="url(#many)"><title>companies.id → audit_log.company_id</title></path>
<path class="relation" data-fk="fk_audit_actor" d="M 1120 829.5 H 1187 V 2179.5 H 1120" marker-start="url(#one)" marker-end="url(#many)"><title>users.id → audit_log.actor_user_id</title></path></g><g id="entities"><g id="table-companies"><rect x="70" y="380" width="1050" height="209" rx="12" class="shell"/><path d="M 82 380 H 1108 Q 1120 380 1120 392 V 444 H 70 V 392 Q 70 380 82 380 Z" class="header"/><text x="96" y="421" class="table">companies</text><text x="1096" y="419" class="count">24 kolommen</text><g id="field-companies-id"><rect x="70" y="444" width="1050" height="43" class="row"/><rect x="70" y="444" width="150" height="43" class="key-cell"/><text x="145" y="472" class="key">PK</text><text x="246" y="472" class="field">id</text><text x="1096" y="472" class="type">BIGINT UNSIGNED</text></g><g id="field-companies-slug"><rect x="70" y="487" width="1050" height="43" class="row"/><rect x="70" y="487" width="150" height="43" class="key-cell"/><text x="145" y="515" class="key">UQ</text><text x="246" y="515" class="field">slug</text><text x="1096" y="515" class="type">VARCHAR(100)</text></g><rect x="70" y="530" width="1050" height="43" class="summary-row"/><text x="246" y="558" class="summary">… 22 overige kolommen in de detail-ERD</text></g>
<g id="table-users"><rect x="70" y="744" width="1050" height="338" rx="12" class="shell"/><path d="M 82 744 H 1108 Q 1120 744 1120 756 V 808 H 70 V 756 Q 70 744 82 744 Z" class="header"/><text x="96" y="785" class="table">users</text><text x="1096" y="783" class="count">13 kolommen</text><g id="field-users-id"><rect x="70" y="808" width="1050" height="43" class="row"/><rect x="70" y="808" width="150" height="43" class="key-cell"/><text x="145" y="836" class="key">PK</text><text x="246" y="836" class="field">id</text><text x="1096" y="836" class="type">BIGINT UNSIGNED</text></g><g id="field-users-company_id"><rect x="70" y="851" width="1050" height="43" class="row"/><rect x="70" y="851" width="150" height="43" class="key-cell"/><text x="145" y="879" class="key">FK</text><text x="246" y="879" class="field">company_id</text><text x="1096" y="879" class="reference">→ companies.id</text></g><g id="field-users-google_subject"><rect x="70" y="894" width="1050" height="43" class="row"/><rect x="70" y="894" width="150" height="43" class="key-cell"/><text x="145" y="922" class="key">UQ</text><text x="246" y="922" class="field">google_subject</text><text x="1096" y="922" class="type">VARCHAR(255)</text></g><g id="field-users-email"><rect x="70" y="937" width="1050" height="43" class="row"/><rect x="70" y="937" width="150" height="43" class="key-cell"/><text x="145" y="965" class="key">UQ</text><text x="246" y="965" class="field">email</text><text x="1096" y="965" class="type">VARCHAR(190)</text></g><g id="field-users-deactivated_by"><rect x="70" y="980" width="1050" height="43" class="row"/><rect x="70" y="980" width="150" height="43" class="key-cell"/><text x="145" y="1008" class="key">FK</text><text x="246" y="1008" class="field">deactivated_by</text><text x="1096" y="1008" class="reference">→ users.id</text></g><rect x="70" y="1023" width="1050" height="43" class="summary-row"/><text x="246" y="1051" class="summary">… 8 overige kolommen in de detail-ERD</text></g>
<g id="table-user_preferences"><rect x="70" y="1237" width="1050" height="166" rx="12" class="shell"/><path d="M 82 1237 H 1108 Q 1120 1237 1120 1249 V 1301 H 70 V 1249 Q 70 1237 82 1237 Z" class="header"/><text x="96" y="1278" class="table">user_preferences</text><text x="1096" y="1276" class="count">8 kolommen</text><g id="field-user_preferences-user_id"><rect x="70" y="1301" width="1050" height="43" class="row"/><rect x="70" y="1301" width="150" height="43" class="key-cell"/><text x="145" y="1329" class="key">PK/FK</text><text x="246" y="1329" class="field">user_id</text><text x="1096" y="1329" class="reference">→ users.id</text></g><rect x="70" y="1344" width="1050" height="43" class="summary-row"/><text x="246" y="1372" class="summary">… 7 overige kolommen in de detail-ERD</text></g>
<g id="table-employees"><rect x="70" y="1558" width="1050" height="295" rx="12" class="shell"/><path d="M 82 1558 H 1108 Q 1120 1558 1120 1570 V 1622 H 70 V 1570 Q 70 1558 82 1558 Z" class="header"/><text x="96" y="1599" class="table">employees</text><text x="1096" y="1597" class="count">13 kolommen</text><g id="field-employees-id"><rect x="70" y="1622" width="1050" height="43" class="row"/><rect x="70" y="1622" width="150" height="43" class="key-cell"/><text x="145" y="1650" class="key">PK</text><text x="246" y="1650" class="field">id</text><text x="1096" y="1650" class="type">BIGINT UNSIGNED</text></g><g id="field-employees-company_id"><rect x="70" y="1665" width="1050" height="43" class="row"/><rect x="70" y="1665" width="150" height="43" class="key-cell"/><text x="145" y="1693" class="key">FK</text><text x="246" y="1693" class="field">company_id</text><text x="1096" y="1693" class="reference">→ companies.id</text></g><g id="field-employees-user_id"><rect x="70" y="1708" width="1050" height="43" class="row"/><rect x="70" y="1708" width="150" height="43" class="key-cell"/><text x="145" y="1736" class="key">FK/UQ</text><text x="246" y="1736" class="field">user_id</text><text x="1096" y="1736" class="reference">→ users.id</text></g><g id="field-employees-employee_number"><rect x="70" y="1751" width="1050" height="43" class="row"/><rect x="70" y="1751" width="150" height="43" class="key-cell"/><text x="145" y="1779" class="key">UQ</text><text x="246" y="1779" class="field">employee_number</text><text x="1096" y="1779" class="type">VARCHAR(32)</text></g><rect x="70" y="1794" width="1050" height="43" class="summary-row"/><text x="246" y="1822" class="summary">… 9 overige kolommen in de detail-ERD</text></g>
<g id="table-counterparties"><rect x="1370" y="380" width="1050" height="209" rx="12" class="shell"/><path d="M 1382 380 H 2408 Q 2420 380 2420 392 V 444 H 1370 V 392 Q 1370 380 1382 380 Z" class="header"/><text x="1396" y="421" class="table">counterparties</text><text x="2396" y="419" class="count">17 kolommen</text><g id="field-counterparties-id"><rect x="1370" y="444" width="1050" height="43" class="row"/><rect x="1370" y="444" width="150" height="43" class="key-cell"/><text x="1445" y="472" class="key">PK</text><text x="1546" y="472" class="field">id</text><text x="2396" y="472" class="type">BIGINT UNSIGNED</text></g><g id="field-counterparties-company_id"><rect x="1370" y="487" width="1050" height="43" class="row"/><rect x="1370" y="487" width="150" height="43" class="key-cell"/><text x="1445" y="515" class="key">FK</text><text x="1546" y="515" class="field">company_id</text><text x="2396" y="515" class="reference">→ companies.id</text></g><rect x="1370" y="530" width="1050" height="43" class="summary-row"/><text x="1546" y="558" class="summary">… 15 overige kolommen in de detail-ERD</text></g>
<g id="table-assignments"><rect x="1370" y="744" width="1050" height="338" rx="12" class="shell"/><path d="M 1382 744 H 2408 Q 2420 744 2420 756 V 808 H 1370 V 756 Q 1370 744 1382 744 Z" class="header"/><text x="1396" y="785" class="table">assignments</text><text x="2396" y="783" class="count">32 kolommen</text><g id="field-assignments-id"><rect x="1370" y="808" width="1050" height="43" class="row"/><rect x="1370" y="808" width="150" height="43" class="key-cell"/><text x="1445" y="836" class="key">PK</text><text x="1546" y="836" class="field">id</text><text x="2396" y="836" class="type">BIGINT UNSIGNED</text></g><g id="field-assignments-company_id"><rect x="1370" y="851" width="1050" height="43" class="row"/><rect x="1370" y="851" width="150" height="43" class="key-cell"/><text x="1445" y="879" class="key">FK</text><text x="1546" y="879" class="field">company_id</text><text x="2396" y="879" class="reference">→ companies.id</text></g><g id="field-assignments-employee_id"><rect x="1370" y="894" width="1050" height="43" class="row"/><rect x="1370" y="894" width="150" height="43" class="key-cell"/><text x="1445" y="922" class="key">FK</text><text x="1546" y="922" class="field">employee_id</text><text x="2396" y="922" class="reference">→ employees.id</text></g><g id="field-assignments-client_id"><rect x="1370" y="937" width="1050" height="43" class="row"/><rect x="1370" y="937" width="150" height="43" class="key-cell"/><text x="1445" y="965" class="key">FK</text><text x="1546" y="965" class="field">client_id</text><text x="2396" y="965" class="reference">→ counterparties.id</text></g><g id="field-assignments-broker_id"><rect x="1370" y="980" width="1050" height="43" class="row"/><rect x="1370" y="980" width="150" height="43" class="key-cell"/><text x="1445" y="1008" class="key">FK</text><text x="1546" y="1008" class="field">broker_id</text><text x="2396" y="1008" class="reference">→ counterparties.id</text></g><rect x="1370" y="1023" width="1050" height="43" class="summary-row"/><text x="1546" y="1051" class="summary">… 27 overige kolommen in de detail-ERD</text></g>
<g id="table-mail_recipients"><rect x="1370" y="1237" width="1050" height="295" rx="12" class="shell"/><path d="M 1382 1237 H 2408 Q 2420 1237 2420 1249 V 1301 H 1370 V 1249 Q 1370 1237 1382 1237 Z" class="header"/><text x="1396" y="1278" class="table">mail_recipients</text><text x="2396" y="1276" class="count">10 kolommen</text><g id="field-mail_recipients-id"><rect x="1370" y="1301" width="1050" height="43" class="row"/><rect x="1370" y="1301" width="150" height="43" class="key-cell"/><text x="1445" y="1329" class="key">PK</text><text x="1546" y="1329" class="field">id</text><text x="2396" y="1329" class="type">BIGINT UNSIGNED</text></g><g id="field-mail_recipients-company_id"><rect x="1370" y="1344" width="1050" height="43" class="row"/><rect x="1370" y="1344" width="150" height="43" class="key-cell"/><text x="1445" y="1372" class="key">FK/UQ</text><text x="1546" y="1372" class="field">company_id</text><text x="2396" y="1372" class="reference">→ companies.id</text></g><g id="field-mail_recipients-recipient_key"><rect x="1370" y="1387" width="1050" height="43" class="row"/><rect x="1370" y="1387" width="150" height="43" class="key-cell"/><text x="1445" y="1415" class="key">UQ</text><text x="1546" y="1415" class="field">recipient_key</text><text x="2396" y="1415" class="type">VARCHAR(80)</text></g><g id="field-mail_recipients-email"><rect x="1370" y="1430" width="1050" height="43" class="row"/><rect x="1370" y="1430" width="150" height="43" class="key-cell"/><text x="1445" y="1458" class="key">UQ</text><text x="1546" y="1458" class="field">email</text><text x="2396" y="1458" class="type">VARCHAR(190)</text></g><rect x="1370" y="1473" width="1050" height="43" class="summary-row"/><text x="1546" y="1501" class="summary">… 6 overige kolommen in de detail-ERD</text></g>
<g id="table-assignment_mail_routes"><rect x="1370" y="1687" width="1050" height="209" rx="12" class="shell"/><path d="M 1382 1687 H 2408 Q 2420 1687 2420 1699 V 1751 H 1370 V 1699 Q 1370 1687 1382 1687 Z" class="header"/><text x="1396" y="1728" class="table">assignment_mail_routes</text><text x="2396" y="1726" class="count">6 kolommen</text><g id="field-assignment_mail_routes-assignment_id"><rect x="1370" y="1751" width="1050" height="43" class="row"/><rect x="1370" y="1751" width="150" height="43" class="key-cell"/><text x="1445" y="1779" class="key">PK/FK</text><text x="1546" y="1779" class="field">assignment_id</text><text x="2396" y="1779" class="reference">→ assignments.id</text></g><g id="field-assignment_mail_routes-mail_recipient_id"><rect x="1370" y="1794" width="1050" height="43" class="row"/><rect x="1370" y="1794" width="150" height="43" class="key-cell"/><text x="1445" y="1822" class="key">PK/FK</text><text x="1546" y="1822" class="field">mail_recipient_id</text><text x="2396" y="1822" class="reference">→ mail_recipients.id</text></g><rect x="1370" y="1837" width="1050" height="43" class="summary-row"/><text x="1546" y="1865" class="summary">… 4 overige kolommen in de detail-ERD</text></g>
<g id="table-periods"><rect x="2670" y="380" width="1050" height="338" rx="12" class="shell"/><path d="M 2682 380 H 3708 Q 3720 380 3720 392 V 444 H 2670 V 392 Q 2670 380 2682 380 Z" class="header"/><text x="2696" y="421" class="table">periods</text><text x="3696" y="419" class="count">8 kolommen</text><g id="field-periods-id"><rect x="2670" y="444" width="1050" height="43" class="row"/><rect x="2670" y="444" width="150" height="43" class="key-cell"/><text x="2745" y="472" class="key">PK</text><text x="2846" y="472" class="field">id</text><text x="3696" y="472" class="type">BIGINT UNSIGNED</text></g><g id="field-periods-company_id"><rect x="2670" y="487" width="1050" height="43" class="row"/><rect x="2670" y="487" width="150" height="43" class="key-cell"/><text x="2745" y="515" class="key">FK/UQ</text><text x="2846" y="515" class="field">company_id</text><text x="3696" y="515" class="reference">→ companies.id</text></g><g id="field-periods-year"><rect x="2670" y="530" width="1050" height="43" class="row"/><rect x="2670" y="530" width="150" height="43" class="key-cell"/><text x="2745" y="558" class="key">UQ</text><text x="2846" y="558" class="field">year</text><text x="3696" y="558" class="type">SMALLINT UNSIGNED</text></g><g id="field-periods-month"><rect x="2670" y="573" width="1050" height="43" class="row"/><rect x="2670" y="573" width="150" height="43" class="key-cell"/><text x="2745" y="601" class="key">UQ</text><text x="2846" y="601" class="field">month</text><text x="3696" y="601" class="type">TINYINT UNSIGNED</text></g><g id="field-periods-closed_by"><rect x="2670" y="616" width="1050" height="43" class="row"/><rect x="2670" y="616" width="150" height="43" class="key-cell"/><text x="2745" y="644" class="key">FK</text><text x="2846" y="644" class="field">closed_by</text><text x="3696" y="644" class="reference">→ users.id</text></g><rect x="2670" y="659" width="1050" height="43" class="summary-row"/><text x="2846" y="687" class="summary">… 3 overige kolommen in de detail-ERD</text></g>
<g id="table-timesheets"><rect x="2670" y="873" width="1050" height="338" rx="12" class="shell"/><path d="M 2682 873 H 3708 Q 3720 873 3720 885 V 937 H 2670 V 885 Q 2670 873 2682 873 Z" class="header"/><text x="2696" y="914" class="table">timesheets</text><text x="3696" y="912" class="count">17 kolommen</text><g id="field-timesheets-id"><rect x="2670" y="937" width="1050" height="43" class="row"/><rect x="2670" y="937" width="150" height="43" class="key-cell"/><text x="2745" y="965" class="key">PK</text><text x="2846" y="965" class="field">id</text><text x="3696" y="965" class="type">BIGINT UNSIGNED</text></g><g id="field-timesheets-period_id"><rect x="2670" y="980" width="1050" height="43" class="row"/><rect x="2670" y="980" width="150" height="43" class="key-cell"/><text x="2745" y="1008" class="key">FK/UQ</text><text x="2846" y="1008" class="field">period_id</text><text x="3696" y="1008" class="reference">→ periods.id</text></g><g id="field-timesheets-employee_id"><rect x="2670" y="1023" width="1050" height="43" class="row"/><rect x="2670" y="1023" width="150" height="43" class="key-cell"/><text x="2745" y="1051" class="key">FK/UQ</text><text x="2846" y="1051" class="field">employee_id</text><text x="3696" y="1051" class="reference">→ employees.id</text></g><g id="field-timesheets-assignment_id"><rect x="2670" y="1066" width="1050" height="43" class="row"/><rect x="2670" y="1066" width="150" height="43" class="key-cell"/><text x="2745" y="1094" class="key">FK/UQ</text><text x="2846" y="1094" class="field">assignment_id</text><text x="3696" y="1094" class="reference">→ assignments.id</text></g><g id="field-timesheets-approved_by"><rect x="2670" y="1109" width="1050" height="43" class="row"/><rect x="2670" y="1109" width="150" height="43" class="key-cell"/><text x="2745" y="1137" class="key">FK</text><text x="2846" y="1137" class="field">approved_by</text><text x="3696" y="1137" class="reference">→ users.id</text></g><rect x="2670" y="1152" width="1050" height="43" class="summary-row"/><text x="2846" y="1180" class="summary">… 12 overige kolommen in de detail-ERD</text></g>
<g id="table-time_entries"><rect x="2670" y="1366" width="1050" height="295" rx="12" class="shell"/><path d="M 2682 1366 H 3708 Q 3720 1366 3720 1378 V 1430 H 2670 V 1378 Q 2670 1366 2682 1366 Z" class="header"/><text x="2696" y="1407" class="table">time_entries</text><text x="3696" y="1405" class="count">8 kolommen</text><g id="field-time_entries-id"><rect x="2670" y="1430" width="1050" height="43" class="row"/><rect x="2670" y="1430" width="150" height="43" class="key-cell"/><text x="2745" y="1458" class="key">PK</text><text x="2846" y="1458" class="field">id</text><text x="3696" y="1458" class="type">BIGINT UNSIGNED</text></g><g id="field-time_entries-timesheet_id"><rect x="2670" y="1473" width="1050" height="43" class="row"/><rect x="2670" y="1473" width="150" height="43" class="key-cell"/><text x="2745" y="1501" class="key">FK/UQ</text><text x="2846" y="1501" class="field">timesheet_id</text><text x="3696" y="1501" class="reference">→ timesheets.id</text></g><g id="field-time_entries-work_date"><rect x="2670" y="1516" width="1050" height="43" class="row"/><rect x="2670" y="1516" width="150" height="43" class="key-cell"/><text x="2745" y="1544" class="key">UQ</text><text x="2846" y="1544" class="field">work_date</text><text x="3696" y="1544" class="type">DATE</text></g><g id="field-time_entries-entry_type"><rect x="2670" y="1559" width="1050" height="43" class="row"/><rect x="2670" y="1559" width="150" height="43" class="key-cell"/><text x="2745" y="1587" class="key">UQ</text><text x="2846" y="1587" class="field">entry_type</text><text x="3696" y="1587" class="type">ENUM</text></g><rect x="2670" y="1602" width="1050" height="43" class="summary-row"/><text x="2846" y="1630" class="summary">… 4 overige kolommen in de detail-ERD</text></g>
<g id="table-timesheet_corrections"><rect x="2670" y="1816" width="1050" height="252" rx="12" class="shell"/><path d="M 2682 1816 H 3708 Q 3720 1816 3720 1828 V 1880 H 2670 V 1828 Q 2670 1816 2682 1816 Z" class="header"/><text x="2696" y="1857" class="table">timesheet_corrections</text><text x="3696" y="1855" class="count">7 kolommen</text><g id="field-timesheet_corrections-id"><rect x="2670" y="1880" width="1050" height="43" class="row"/><rect x="2670" y="1880" width="150" height="43" class="key-cell"/><text x="2745" y="1908" class="key">PK</text><text x="2846" y="1908" class="field">id</text><text x="3696" y="1908" class="type">BIGINT UNSIGNED</text></g><g id="field-timesheet_corrections-timesheet_id"><rect x="2670" y="1923" width="1050" height="43" class="row"/><rect x="2670" y="1923" width="150" height="43" class="key-cell"/><text x="2745" y="1951" class="key">FK</text><text x="2846" y="1951" class="field">timesheet_id</text><text x="3696" y="1951" class="reference">→ timesheets.id</text></g><g id="field-timesheet_corrections-requested_by"><rect x="2670" y="1966" width="1050" height="43" class="row"/><rect x="2670" y="1966" width="150" height="43" class="key-cell"/><text x="2745" y="1994" class="key">FK</text><text x="2846" y="1994" class="field">requested_by</text><text x="3696" y="1994" class="reference">→ users.id</text></g><rect x="2670" y="2009" width="1050" height="43" class="summary-row"/><text x="2846" y="2037" class="summary">… 4 overige kolommen in de detail-ERD</text></g>
<g id="table-customer_timesheets"><rect x="3970" y="380" width="1050" height="381" rx="12" class="shell"/><path d="M 3982 380 H 5008 Q 5020 380 5020 392 V 444 H 3970 V 392 Q 3970 380 3982 380 Z" class="header"/><text x="3996" y="421" class="table">customer_timesheets</text><text x="4996" y="419" class="count">19 kolommen</text><g id="field-customer_timesheets-id"><rect x="3970" y="444" width="1050" height="43" class="row"/><rect x="3970" y="444" width="150" height="43" class="key-cell"/><text x="4045" y="472" class="key">PK</text><text x="4146" y="472" class="field">id</text><text x="4996" y="472" class="type">BIGINT UNSIGNED</text></g><g id="field-customer_timesheets-period_id"><rect x="3970" y="487" width="1050" height="43" class="row"/><rect x="3970" y="487" width="150" height="43" class="key-cell"/><text x="4045" y="515" class="key">FK/UQ</text><text x="4146" y="515" class="field">period_id</text><text x="4996" y="515" class="reference">→ periods.id</text></g><g id="field-customer_timesheets-employee_id"><rect x="3970" y="530" width="1050" height="43" class="row"/><rect x="3970" y="530" width="150" height="43" class="key-cell"/><text x="4045" y="558" class="key">FK/UQ</text><text x="4146" y="558" class="field">employee_id</text><text x="4996" y="558" class="reference">→ employees.id</text></g><g id="field-customer_timesheets-assignment_id"><rect x="3970" y="573" width="1050" height="43" class="row"/><rect x="3970" y="573" width="150" height="43" class="key-cell"/><text x="4045" y="601" class="key">FK/UQ</text><text x="4146" y="601" class="field">assignment_id</text><text x="4996" y="601" class="reference">→ assignments.id</text></g><g id="field-customer_timesheets-uploaded_by"><rect x="3970" y="616" width="1050" height="43" class="row"/><rect x="3970" y="616" width="150" height="43" class="key-cell"/><text x="4045" y="644" class="key">FK</text><text x="4146" y="644" class="field">uploaded_by</text><text x="4996" y="644" class="reference">→ users.id</text></g><g id="field-customer_timesheets-reviewed_by"><rect x="3970" y="659" width="1050" height="43" class="row"/><rect x="3970" y="659" width="150" height="43" class="key-cell"/><text x="4045" y="687" class="key">FK</text><text x="4146" y="687" class="field">reviewed_by</text><text x="4996" y="687" class="reference">→ users.id</text></g><rect x="3970" y="702" width="1050" height="43" class="summary-row"/><text x="4146" y="730" class="summary">… 13 overige kolommen in de detail-ERD</text></g>
<g id="table-invoices"><rect x="3970" y="916" width="1050" height="381" rx="12" class="shell"/><path d="M 3982 916 H 5008 Q 5020 916 5020 928 V 980 H 3970 V 928 Q 3970 916 3982 916 Z" class="header"/><text x="3996" y="957" class="table">invoices</text><text x="4996" y="955" class="count">20 kolommen</text><g id="field-invoices-id"><rect x="3970" y="980" width="1050" height="43" class="row"/><rect x="3970" y="980" width="150" height="43" class="key-cell"/><text x="4045" y="1008" class="key">PK</text><text x="4146" y="1008" class="field">id</text><text x="4996" y="1008" class="type">BIGINT UNSIGNED</text></g><g id="field-invoices-company_id"><rect x="3970" y="1023" width="1050" height="43" class="row"/><rect x="3970" y="1023" width="150" height="43" class="key-cell"/><text x="4045" y="1051" class="key">FK</text><text x="4146" y="1051" class="field">company_id</text><text x="4996" y="1051" class="reference">→ companies.id</text></g><g id="field-invoices-timesheet_id"><rect x="3970" y="1066" width="1050" height="43" class="row"/><rect x="3970" y="1066" width="150" height="43" class="key-cell"/><text x="4045" y="1094" class="key">FK/UQ</text><text x="4146" y="1094" class="field">timesheet_id</text><text x="4996" y="1094" class="reference">→ timesheets.id</text></g><g id="field-invoices-invoice_number"><rect x="3970" y="1109" width="1050" height="43" class="row"/><rect x="3970" y="1109" width="150" height="43" class="key-cell"/><text x="4045" y="1137" class="key">UQ</text><text x="4146" y="1137" class="field">invoice_number</text><text x="4996" y="1137" class="type">VARCHAR(64)</text></g><g id="field-invoices-recipient_id"><rect x="3970" y="1152" width="1050" height="43" class="row"/><rect x="3970" y="1152" width="150" height="43" class="key-cell"/><text x="4045" y="1180" class="key">FK</text><text x="4146" y="1180" class="field">recipient_id</text><text x="4996" y="1180" class="reference">→ counterparties.id</text></g><g id="field-invoices-created_by"><rect x="3970" y="1195" width="1050" height="43" class="row"/><rect x="3970" y="1195" width="150" height="43" class="key-cell"/><text x="4045" y="1223" class="key">FK</text><text x="4146" y="1223" class="field">created_by</text><text x="4996" y="1223" class="reference">→ users.id</text></g><rect x="3970" y="1238" width="1050" height="43" class="summary-row"/><text x="4146" y="1266" class="summary">… 14 overige kolommen in de detail-ERD</text></g>
<g id="table-announcements"><rect x="5270" y="380" width="1050" height="424" rx="12" class="shell"/><path d="M 5282 380 H 6308 Q 6320 380 6320 392 V 444 H 5270 V 392 Q 5270 380 5282 380 Z" class="header"/><text x="5296" y="421" class="table">announcements</text><text x="6296" y="419" class="count">17 kolommen</text><g id="field-announcements-id"><rect x="5270" y="444" width="1050" height="43" class="row"/><rect x="5270" y="444" width="150" height="43" class="key-cell"/><text x="5345" y="472" class="key">PK</text><text x="5446" y="472" class="field">id</text><text x="6296" y="472" class="type">BIGINT UNSIGNED</text></g><g id="field-announcements-company_id"><rect x="5270" y="487" width="1050" height="43" class="row"/><rect x="5270" y="487" width="150" height="43" class="key-cell"/><text x="5345" y="515" class="key">FK</text><text x="5446" y="515" class="field">company_id</text><text x="6296" y="515" class="reference">→ companies.id</text></g><g id="field-announcements-created_by"><rect x="5270" y="530" width="1050" height="43" class="row"/><rect x="5270" y="530" width="150" height="43" class="key-cell"/><text x="5345" y="558" class="key">FK</text><text x="5446" y="558" class="field">created_by</text><text x="6296" y="558" class="reference">→ users.id</text></g><g id="field-announcements-correction_of_id"><rect x="5270" y="573" width="1050" height="43" class="row"/><rect x="5270" y="573" width="150" height="43" class="key-cell"/><text x="5345" y="601" class="key">FK</text><text x="5446" y="601" class="field">correction_of_id</text><text x="6296" y="601" class="reference">→ announcements.id</text></g><g id="field-announcements-superseded_by_id"><rect x="5270" y="616" width="1050" height="43" class="row"/><rect x="5270" y="616" width="150" height="43" class="key-cell"/><text x="5345" y="644" class="key">FK</text><text x="5446" y="644" class="field">superseded_by_id</text><text x="6296" y="644" class="reference">→ announcements.id</text></g><g id="field-announcements-withdrawal_of_id"><rect x="5270" y="659" width="1050" height="43" class="row"/><rect x="5270" y="659" width="150" height="43" class="key-cell"/><text x="5345" y="687" class="key">FK</text><text x="5446" y="687" class="field">withdrawal_of_id</text><text x="6296" y="687" class="reference">→ announcements.id</text></g><g id="field-announcements-withdrawn_by"><rect x="5270" y="702" width="1050" height="43" class="row"/><rect x="5270" y="702" width="150" height="43" class="key-cell"/><text x="5345" y="730" class="key">FK</text><text x="5446" y="730" class="field">withdrawn_by</text><text x="6296" y="730" class="reference">→ users.id</text></g><rect x="5270" y="745" width="1050" height="43" class="summary-row"/><text x="5446" y="773" class="summary">… 10 overige kolommen in de detail-ERD</text></g>
<g id="table-announcement_recipients"><rect x="5270" y="959" width="1050" height="209" rx="12" class="shell"/><path d="M 5282 959 H 6308 Q 6320 959 6320 971 V 1023 H 5270 V 971 Q 5270 959 5282 959 Z" class="header"/><text x="5296" y="1000" class="table">announcement_recipients</text><text x="6296" y="998" class="count">6 kolommen</text><g id="field-announcement_recipients-announcement_id"><rect x="5270" y="1023" width="1050" height="43" class="row"/><rect x="5270" y="1023" width="150" height="43" class="key-cell"/><text x="5345" y="1051" class="key">PK/FK</text><text x="5446" y="1051" class="field">announcement_id</text><text x="6296" y="1051" class="reference">→ announcements.id</text></g><g id="field-announcement_recipients-user_id"><rect x="5270" y="1066" width="1050" height="43" class="row"/><rect x="5270" y="1066" width="150" height="43" class="key-cell"/><text x="5345" y="1094" class="key">PK/FK</text><text x="5446" y="1094" class="field">user_id</text><text x="6296" y="1094" class="reference">→ users.id</text></g><rect x="5270" y="1109" width="1050" height="43" class="summary-row"/><text x="5446" y="1137" class="summary">… 4 overige kolommen in de detail-ERD</text></g>
<g id="table-email_deliveries"><rect x="5270" y="1323" width="1050" height="338" rx="12" class="shell"/><path d="M 5282 1323 H 6308 Q 6320 1323 6320 1335 V 1387 H 5270 V 1335 Q 5270 1323 5282 1323 Z" class="header"/><text x="5296" y="1364" class="table">email_deliveries</text><text x="6296" y="1362" class="count">18 kolommen</text><g id="field-email_deliveries-id"><rect x="5270" y="1387" width="1050" height="43" class="row"/><rect x="5270" y="1387" width="150" height="43" class="key-cell"/><text x="5345" y="1415" class="key">PK</text><text x="5446" y="1415" class="field">id</text><text x="6296" y="1415" class="type">BIGINT UNSIGNED</text></g><g id="field-email_deliveries-invoice_id"><rect x="5270" y="1430" width="1050" height="43" class="row"/><rect x="5270" y="1430" width="150" height="43" class="key-cell"/><text x="5345" y="1458" class="key">FK</text><text x="5446" y="1458" class="field">invoice_id</text><text x="6296" y="1458" class="reference">→ invoices.id</text></g><g id="field-email_deliveries-timesheet_id"><rect x="5270" y="1473" width="1050" height="43" class="row"/><rect x="5270" y="1473" width="150" height="43" class="key-cell"/><text x="5345" y="1501" class="key">FK</text><text x="5446" y="1501" class="field">timesheet_id</text><text x="6296" y="1501" class="reference">→ timesheets.id</text></g><g id="field-email_deliveries-customer_timesheet_id"><rect x="5270" y="1516" width="1050" height="43" class="row"/><rect x="5270" y="1516" width="150" height="43" class="key-cell"/><text x="5345" y="1544" class="key">FK</text><text x="5446" y="1544" class="field">customer_timesheet_id</text><text x="6296" y="1544" class="reference">→ customer_timesheets.id</text></g><g id="field-email_deliveries-announcement_id"><rect x="5270" y="1559" width="1050" height="43" class="row"/><rect x="5270" y="1559" width="150" height="43" class="key-cell"/><text x="5345" y="1587" class="key">FK</text><text x="5446" y="1587" class="field">announcement_id</text><text x="6296" y="1587" class="reference">→ announcements.id</text></g><rect x="5270" y="1602" width="1050" height="43" class="summary-row"/><text x="5446" y="1630" class="summary">… 13 overige kolommen in de detail-ERD</text></g>
<g id="table-notifications"><rect x="5270" y="1816" width="1050" height="338" rx="12" class="shell"/><path d="M 5282 1816 H 6308 Q 6320 1816 6320 1828 V 1880 H 5270 V 1828 Q 5270 1816 5282 1816 Z" class="header"/><text x="5296" y="1857" class="table">notifications</text><text x="6296" y="1855" class="count">11 kolommen</text><g id="field-notifications-id"><rect x="5270" y="1880" width="1050" height="43" class="row"/><rect x="5270" y="1880" width="150" height="43" class="key-cell"/><text x="5345" y="1908" class="key">PK</text><text x="5446" y="1908" class="field">id</text><text x="6296" y="1908" class="type">BIGINT UNSIGNED</text></g><g id="field-notifications-company_id"><rect x="5270" y="1923" width="1050" height="43" class="row"/><rect x="5270" y="1923" width="150" height="43" class="key-cell"/><text x="5345" y="1951" class="key">FK</text><text x="5446" y="1951" class="field">company_id</text><text x="6296" y="1951" class="reference">→ companies.id</text></g><g id="field-notifications-user_id"><rect x="5270" y="1966" width="1050" height="43" class="row"/><rect x="5270" y="1966" width="150" height="43" class="key-cell"/><text x="5345" y="1994" class="key">FK</text><text x="5446" y="1994" class="field">user_id</text><text x="6296" y="1994" class="reference">→ users.id</text></g><g id="field-notifications-period_id"><rect x="5270" y="2009" width="1050" height="43" class="row"/><rect x="5270" y="2009" width="150" height="43" class="key-cell"/><text x="5345" y="2037" class="key">FK</text><text x="5446" y="2037" class="field">period_id</text><text x="6296" y="2037" class="reference">→ periods.id</text></g><g id="field-notifications-announcement_id"><rect x="5270" y="2052" width="1050" height="43" class="row"/><rect x="5270" y="2052" width="150" height="43" class="key-cell"/><text x="5345" y="2080" class="key">FK</text><text x="5446" y="2080" class="field">announcement_id</text><text x="6296" y="2080" class="reference">→ announcements.id</text></g><rect x="5270" y="2095" width="1050" height="43" class="summary-row"/><text x="5446" y="2123" class="summary">… 6 overige kolommen in de detail-ERD</text></g>
<g id="table-audit_log"><rect x="70" y="2008" width="1050" height="252" rx="12" class="shell"/><path d="M 82 2008 H 1108 Q 1120 2008 1120 2020 V 2072 H 70 V 2020 Q 70 2008 82 2008 Z" class="header"/><text x="96" y="2049" class="table">audit_log</text><text x="1096" y="2047" class="count">9 kolommen</text><g id="field-audit_log-id"><rect x="70" y="2072" width="1050" height="43" class="row"/><rect x="70" y="2072" width="150" height="43" class="key-cell"/><text x="145" y="2100" class="key">PK</text><text x="246" y="2100" class="field">id</text><text x="1096" y="2100" class="type">BIGINT UNSIGNED</text></g><g id="field-audit_log-company_id"><rect x="70" y="2115" width="1050" height="43" class="row"/><rect x="70" y="2115" width="150" height="43" class="key-cell"/><text x="145" y="2143" class="key">FK</text><text x="246" y="2143" class="field">company_id</text><text x="1096" y="2143" class="reference">→ companies.id</text></g><g id="field-audit_log-actor_user_id"><rect x="70" y="2158" width="1050" height="43" class="row"/><rect x="70" y="2158" width="150" height="43" class="key-cell"/><text x="145" y="2186" class="key">FK</text><text x="246" y="2186" class="field">actor_user_id</text><text x="1096" y="2186" class="reference">→ users.id</text></g><rect x="70" y="2201" width="1050" height="43" class="summary-row"/><text x="246" y="2229" class="summary">… 6 overige kolommen in de detail-ERD</text></g></g></svg>